<svg width="1200" height="600" xmlns="http://www.w3.org/2000/svg">
<defs>
<style>
text { font-family: Arial, sans-serif; }
</style>
</defs>
<rect width="1200" height="600" fill="#f8f9fa" stroke="none"/>
<rect x="50" y="50" width="245" height="113" fill="white" stroke="black" stroke-width="2"/>
<rect x="50" y="50" width="245" height="25" fill="#e6f3ff" stroke="black" stroke-width="1"/>
<text x="55" y="66" font-family="Arial" font-size="12" font-weight="bold">ユーザー (users)</text>
<text x="61" y="89" font-family="Arial" font-size="10" font-weight="normal" fill="black">ユーザーID</text>
<rect x="53" y="83" width="3" height="6" fill="black"/>
<text x="148" y="89" font-family="Arial" font-size="10" fill="black">id</text>
<text x="218" y="89" font-family="Arial" font-size="9" fill="black">INT</text>
<text x="61" y="111" font-family="Arial" font-size="10" font-weight="normal" fill="black">ユーザー名</text>
<rect x="53" y="105" width="3" height="6" fill="black"/>
<text x="148" y="111" font-family="Arial" font-size="10" fill="black">username</text>
<text x="218" y="111" font-family="Arial" font-size="9" fill="black">VARCHAR(50)</text>
<text x="61" y="133" font-family="Arial" font-size="10" font-weight="normal" fill="black">メールアドレス</text>
<rect x="53" y="127" width="3" height="6" fill="black"/>
<text x="148" y="133" font-family="Arial" font-size="10" fill="black">email</text>
<text x="218" y="133" font-family="Arial" font-size="9" fill="black">VARCHAR(100)</text>
<text x="61" y="155" font-family="Arial" font-size="10" font-weight="normal" fill="black">作成日時</text>
<rect x="53" y="149" width="3" height="6" fill="black"/>
<text x="148" y="155" font-family="Arial" font-size="10" fill="black">created_at</text>
<text x="218" y="155" font-family="Arial" font-size="9" fill="black">TIMESTAMP</text>
<line x1="50" y1="97" x2="295" y2="97" stroke="black" stroke-width="1"/>
<rect x="345" y="50" width="271" height="135" fill="white" stroke="black" stroke-width="2"/>
<rect x="345" y="50" width="271" height="25" fill="#e6f3ff" stroke="black" stroke-width="1"/>
<text x="350" y="66" font-family="Arial" font-size="12" font-weight="bold">投稿 (posts)</text>
<text x="356" y="89" font-family="Arial" font-size="10" font-weight="normal" fill="black">投稿ID</text>
<rect x="348" y="83" width="3" height="6" fill="black"/>
<text x="432" y="89" font-family="Arial" font-size="10" fill="black">id</text>
<text x="514" y="89" font-family="Arial" font-size="9" fill="black">INT</text>
<text x="596" y="89" font-family="Arial" font-size="9" fill="black"></text>
<text x="356" y="111" font-family="Arial" font-size="10" font-weight="normal" fill="black">ユーザーID</text>
<rect x="348" y="105" width="3" height="6" fill="black"/>
<text x="432" y="111" font-family="Arial" font-size="10" fill="black">user_id</text>
<text x="514" y="111" font-family="Arial" font-size="9" fill="black">INT</text>
<text x="596" y="111" font-family="Arial" font-size="9" fill="black">FK</text>
<text x="356" y="133" font-family="Arial" font-size="10" font-weight="normal" fill="black">タイトル</text>
<rect x="348" y="127" width="3" height="6" fill="black"/>
<text x="432" y="133" font-family="Arial" font-size="10" fill="black">title</text>
<text x="514" y="133" font-family="Arial" font-size="9" fill="black">VARCHAR(200)</text>
<text x="596" y="133" font-family="Arial" font-size="9" fill="black"></text>
<text x="356" y="155" font-family="Arial" font-size="10" font-weight="normal" fill="black">本文</text>
<text x="432" y="155" font-family="Arial" font-size="10" fill="black">content</text>
<text x="514" y="155" font-family="Arial" font-size="9" fill="black">TEXT</text>
<text x="596" y="155" font-family="Arial" font-size="9" fill="black"></text>
<text x="356" y="177" font-family="Arial" font-size="10" font-weight="normal" fill="black">公開日時</text>
<text x="432" y="177" font-family="Arial" font-size="10" fill="black">published_at</text>
<text x="514" y="177" font-family="Arial" font-size="9" fill="black">TIMESTAMP</text>
<text x="596" y="177" font-family="Arial" font-size="9" fill="black"></text>
<line x1="345" y1="97" x2="616" y2="97" stroke="black" stroke-width="1"/>
<rect x="666" y="50" width="240" height="91" fill="white" stroke="black" stroke-width="2"/>
<rect x="666" y="50" width="240" height="25" fill="#e6f3ff" stroke="black" stroke-width="1"/>
<text x="671" y="66" font-family="Arial" font-size="12" font-weight="bold">カテゴリ (categories)</text>
<text x="677" y="89" font-family="Arial" font-size="10" font-weight="normal" fill="black">カテゴリID</text>
<rect x="669" y="83" width="3" height="6" fill="black"/>
<text x="753" y="89" font-family="Arial" font-size="10" fill="black">id</text>
<text x="829" y="89" font-family="Arial" font-size="9" fill="black">INT</text>
<text x="677" y="111" font-family="Arial" font-size="10" font-weight="normal" fill="black">カテゴリ名</text>
<rect x="669" y="105" width="3" height="6" fill="black"/>
<text x="753" y="111" font-family="Arial" font-size="10" fill="black">name</text>
<text x="829" y="111" font-family="Arial" font-size="9" fill="black">VARCHAR(100)</text>
<text x="677" y="133" font-family="Arial" font-size="10" font-weight="normal" fill="black">説明</text>
<text x="753" y="133" font-family="Arial" font-size="10" fill="black">description</text>
<text x="829" y="133" font-family="Arial" font-size="9" fill="black">TEXT</text>
<line x1="666" y1="97" x2="906" y2="97" stroke="black" stroke-width="1"/>
<rect x="50" y="250" width="228" height="91" fill="white" stroke="black" stroke-width="2"/>
<rect x="50" y="250" width="228" height="25" fill="#e6f3ff" stroke="black" stroke-width="1"/>
<text x="55" y="266" font-family="Arial" font-size="12" font-weight="bold">投稿カテゴリ (post_categories)</text>
<text x="61" y="289" font-family="Arial" font-size="10" font-weight="normal" fill="black">投稿ID</text>
<rect x="53" y="283" width="3" height="6" fill="black"/>
<text x="137" y="289" font-family="Arial" font-size="10" fill="black">post_id</text>
<text x="213" y="289" font-family="Arial" font-size="9" fill="black">INT</text>
<text x="258" y="289" font-family="Arial" font-size="9" fill="black">FK</text>
<text x="61" y="311" font-family="Arial" font-size="10" font-weight="normal" fill="black">カテゴリID</text>
<rect x="53" y="305" width="3" height="6" fill="black"/>
<text x="137" y="311" font-family="Arial" font-size="10" fill="black">category_id</text>
<text x="213" y="311" font-family="Arial" font-size="9" fill="black">INT</text>
<text x="258" y="311" font-family="Arial" font-size="9" fill="black">FK</text>
<line x1="50" y1="319" x2="278" y2="319" stroke="black" stroke-width="1"/>
</svg>