<svg width="666" height="517" xmlns="http://www.w3.org/2000/svg">
<style>
text { font-family: Arial, sans-serif; }
</style>
<rect width="666" height="517" fill="#f8f9fa" stroke="none"/>
<rect x="50" y="191" width="245" height="113" fill="white" stroke="black" stroke-width="2"/>
<rect x="50" y="191" width="245" height="25" fill="#e6f3ff" stroke="black" stroke-width="1"/>
<text x="55" y="207" font-family="Arial" font-size="12" font-weight="bold">ユーザー (users)</text>
<text x="61" y="230" font-family="Arial" font-size="10" font-weight="normal" fill="black">ユーザーID</text>
<rect x="53" y="224" width="3" height="6" fill="black"/>
<text x="148" y="230" font-family="Arial" font-size="10" fill="black">id</text>
<text x="218" y="230" font-family="Arial" font-size="9" fill="black">INT</text>
<text x="61" y="252" font-family="Arial" font-size="10" font-weight="normal" fill="black">ユーザー名</text>
<rect x="53" y="246" width="3" height="6" fill="black"/>
<text x="148" y="252" font-family="Arial" font-size="10" fill="black">username</text>
<text x="218" y="252" font-family="Arial" font-size="9" fill="black">VARCHAR(50)</text>
<text x="61" y="274" font-family="Arial" font-size="10" font-weight="normal" fill="black">メールアドレス</text>
<rect x="53" y="268" width="3" height="6" fill="black"/>
<text x="148" y="274" font-family="Arial" font-size="10" fill="black">email</text>
<text x="218" y="274" font-family="Arial" font-size="9" fill="black">VARCHAR(100)</text>
<text x="61" y="296" font-family="Arial" font-size="10" font-weight="normal" fill="black">作成日時</text>
<rect x="53" y="290" width="3" height="6" fill="black"/>
<text x="148" y="296" font-family="Arial" font-size="10" fill="black">created_at</text>
<text x="218" y="296" font-family="Arial" font-size="9" fill="black">TIMESTAMP</text>
<line x1="50" y1="238" x2="295" y2="238" stroke="black" stroke-width="1"/>
<rect x="345" y="191" width="271" height="135" fill="white" stroke="black" stroke-width="2"/>
<rect x="345" y="191" width="271" height="25" fill="#e6f3ff" stroke="black" stroke-width="1"/>
<text x="350" y="207" font-family="Arial" font-size="12" font-weight="bold">投稿 (posts)</text>
<text x="356" y="230" font-family="Arial" font-size="10" font-weight="normal" fill="black">投稿ID</text>
<rect x="348" y="224" width="3" height="6" fill="black"/>
<text x="432" y="230" font-family="Arial" font-size="10" fill="black">id</text>
<text x="514" y="230" font-family="Arial" font-size="9" fill="black">INT</text>
<text x="596" y="230" font-family="Arial" font-size="9" fill="black"></text>
<text x="356" y="252" font-family="Arial" font-size="10" font-weight="normal" fill="black">ユーザーID</text>
<rect x="348" y="246" width="3" height="6" fill="black"/>
<text x="432" y="252" font-family="Arial" font-size="10" fill="black">user_id</text>
<text x="514" y="252" font-family="Arial" font-size="9" fill="black">INT</text>
<text x="596" y="252" font-family="Arial" font-size="9" fill="black">FK</text>
<text x="356" y="274" font-family="Arial" font-size="10" font-weight="normal" fill="black">タイトル</text>
<rect x="348" y="268" width="3" height="6" fill="black"/>
<text x="432" y="274" font-family="Arial" font-size="10" fill="black">title</text>
<text x="514" y="274" font-family="Arial" font-size="9" fill="black">VARCHAR(200)</text>
<text x="596" y="274" font-family="Arial" font-size="9" fill="black"></text>
<text x="356" y="296" font-family="Arial" font-size="10" font-weight="normal" fill="black">本文</text>
<text x="432" y="296" font-family="Arial" font-size="10" fill="black">content</text>
<text x="514" y="296" font-family="Arial" font-size="9" fill="black">TEXT</text>
<text x="596" y="296" font-family="Arial" font-size="9" fill="black"></text>
<text x="356" y="318" font-family="Arial" font-size="10" font-weight="normal" fill="black">公開日時</text>
<text x="432" y="318" font-family="Arial" font-size="10" fill="black">published_at</text>
<text x="514" y="318" font-family="Arial" font-size="9" fill="black">TIMESTAMP</text>
<text x="596" y="318" font-family="Arial" font-size="9" fill="black"></text>
<line x1="345" y1="238" x2="616" y2="238" stroke="black" stroke-width="1"/>
<rect x="50" y="50" width="240" height="91" fill="white" stroke="black" stroke-width="2"/>
<rect x="50" y="50" width="240" height="25" fill="#e6f3ff" stroke="black" stroke-width="1"/>
<text x="55" y="66" font-family="Arial" font-size="12" font-weight="bold">カテゴリ (categories)</text>
<text x="61" y="89" font-family="Arial" font-size="10" font-weight="normal" fill="black">カテゴリID</text>
<rect x="53" y="83" width="3" height="6" fill="black"/>
<text x="137" y="89" font-family="Arial" font-size="10" fill="black">id</text>
<text x="213" y="89" font-family="Arial" font-size="9" fill="black">INT</text>
<text x="61" y="111" font-family="Arial" font-size="10" font-weight="normal" fill="black">カテゴリ名</text>
<rect x="53" y="105" width="3" height="6" fill="black"/>
<text x="137" y="111" font-family="Arial" font-size="10" fill="black">name</text>
<text x="213" y="111" font-family="Arial" font-size="9" fill="black">VARCHAR(100)</text>
<text x="61" y="133" font-family="Arial" font-size="10" font-weight="normal" fill="black">説明</text>
<text x="137" y="133" font-family="Arial" font-size="10" fill="black">description</text>
<text x="213" y="133" font-family="Arial" font-size="9" fill="black">TEXT</text>
<line x1="50" y1="97" x2="290" y2="97" stroke="black" stroke-width="1"/>
<rect x="340" y="50" width="228" height="91" fill="white" stroke="black" stroke-width="2"/>
<rect x="340" y="50" width="228" height="25" fill="#e6f3ff" stroke="black" stroke-width="1"/>
<text x="345" y="66" font-family="Arial" font-size="12" font-weight="bold">投稿カテゴリ (post_categories)</text>
<text x="351" y="89" font-family="Arial" font-size="10" font-weight="normal" fill="black">投稿ID</text>
<rect x="343" y="83" width="3" height="6" fill="black"/>
<text x="427" y="89" font-family="Arial" font-size="10" fill="black">post_id</text>
<text x="503" y="89" font-family="Arial" font-size="9" fill="black">INT</text>
<text x="548" y="89" font-family="Arial" font-size="9" fill="black">FK</text>
<text x="351" y="111" font-family="Arial" font-size="10" font-weight="normal" fill="black">カテゴリID</text>
<rect x="343" y="105" width="3" height="6" fill="black"/>
<text x="427" y="111" font-family="Arial" font-size="10" fill="black">category_id</text>
<text x="503" y="111" font-family="Arial" font-size="9" fill="black">INT</text>
<text x="548" y="111" font-family="Arial" font-size="9" fill="black">FK</text>
<line x1="340" y1="119" x2="568" y2="119" stroke="black" stroke-width="1"/>
<rect x="50" y="376" width="212" height="91" fill="white" stroke="black" stroke-width="2"/>
<rect x="50" y="376" width="212" height="25" fill="#e6f3ff" stroke="black" stroke-width="1"/>
<text x="55" y="392" font-family="Arial" font-size="12" font-weight="bold">ユーザ種別 (user_types)</text>
<text x="61" y="415" font-family="Arial" font-size="10" font-weight="normal" fill="black">種別ID</text>
<rect x="53" y="409" width="3" height="6" fill="black"/>
<text x="115" y="415" font-family="Arial" font-size="10" fill="black">id</text>
<text x="191" y="415" font-family="Arial" font-size="9" fill="black">INT</text>
<text x="61" y="437" font-family="Arial" font-size="10" font-weight="normal" fill="black">種別名</text>
<rect x="53" y="431" width="3" height="6" fill="black"/>
<text x="115" y="437" font-family="Arial" font-size="10" fill="black">type_name</text>
<text x="191" y="437" font-family="Arial" font-size="9" fill="black">VARCHAR(50)</text>
<text x="61" y="459" font-family="Arial" font-size="10" font-weight="normal" fill="black">説明</text>
<text x="115" y="459" font-family="Arial" font-size="10" fill="black">description</text>
<text x="191" y="459" font-family="Arial" font-size="9" fill="black">TEXT</text>
<line x1="50" y1="423" x2="262" y2="423" stroke="black" stroke-width="1"/>
<line x1="345" y1="253" x2="295" y2="251" stroke="black" stroke-width="1"/>
<line x1="461" y1="141" x2="469" y2="191" stroke="black" stroke-width="1"/>
<line x1="340" y1="95" x2="290" y2="95" stroke="black" stroke-width="1"/>
<line x1="160" y1="376" x2="166" y2="304" stroke="black" stroke-width="1"/>
</svg>