<svg width="1098" height="539" xmlns="http://www.w3.org/2000/svg">
<style>
text { font-family: Arial, sans-serif; }
</style>
<rect width="1098" height="539" fill="#f8f9fa" stroke="none"/>
<rect x="312" y="191" width="273" height="113" fill="white" stroke="black" stroke-width="2"/>
<rect x="312" y="191" width="273" height="25" fill="#e6f3ff" stroke="black" stroke-width="1"/>
<text x="317" y="207" font-family="Arial" font-size="12" font-weight="bold">ユーザー (users)</text>
<text x="323" y="230" font-family="Arial" font-size="10" font-weight="normal" fill="black">ユーザーID</text>
<rect x="315" y="224" width="3" height="6" fill="black"/>
<text x="410" y="230" font-family="Arial" font-size="10" fill="black">id</text>
<text x="480" y="230" font-family="Arial" font-size="9" fill="black">INT</text>
<text x="562" y="230" font-family="Arial" font-size="9" fill="black"></text>
<text x="323" y="252" font-family="Arial" font-size="10" font-weight="normal" fill="black">ユーザー名</text>
<rect x="315" y="246" width="3" height="6" fill="black"/>
<text x="410" y="252" font-family="Arial" font-size="10" fill="black">username</text>
<text x="480" y="252" font-family="Arial" font-size="9" fill="black">VARCHAR(50)</text>
<text x="562" y="252" font-family="Arial" font-size="9" fill="black">IDX</text>
<text x="323" y="274" font-family="Arial" font-size="10" font-weight="normal" fill="black">メールアドレス</text>
<rect x="315" y="268" width="3" height="6" fill="black"/>
<text x="410" y="274" font-family="Arial" font-size="10" fill="black">email</text>
<text x="480" y="274" font-family="Arial" font-size="9" fill="black">VARCHAR(100)</text>
<text x="562" y="274" font-family="Arial" font-size="9" fill="black">IDX</text>
<text x="323" y="296" font-family="Arial" font-size="10" font-weight="normal" fill="black">作成日時</text>
<rect x="315" y="290" width="3" height="6" fill="black"/>
<text x="410" y="296" font-family="Arial" font-size="10" fill="black">created_at</text>
<text x="480" y="296" font-family="Arial" font-size="9" fill="black">TIMESTAMP</text>
<text x="562" y="296" font-family="Arial" font-size="9" fill="black"></text>
<line x1="312" y1="238" x2="585" y2="238" stroke="black" stroke-width="1"/>
<rect x="750" y="354" width="298" height="135" fill="white" stroke="black" stroke-width="2"/>
<rect x="750" y="354" width="298" height="25" fill="#e6f3ff" stroke="black" stroke-width="1"/>
<text x="755" y="370" font-family="Arial" font-size="12" font-weight="bold">投稿 (posts)</text>
<text x="761" y="393" font-family="Arial" font-size="10" font-weight="normal" fill="black">投稿ID</text>
<rect x="753" y="387" width="3" height="6" fill="black"/>
<text x="837" y="393" font-family="Arial" font-size="10" fill="black">id</text>
<text x="919" y="393" font-family="Arial" font-size="9" fill="black">INT</text>
<text x="1001" y="393" font-family="Arial" font-size="9" fill="black"></text>
<text x="761" y="415" font-family="Arial" font-size="10" font-weight="normal" fill="black">ユーザーID</text>
<rect x="753" y="409" width="3" height="6" fill="black"/>
<text x="837" y="415" font-family="Arial" font-size="10" fill="black">user_id</text>
<text x="919" y="415" font-family="Arial" font-size="9" fill="black">INT</text>
<text x="1001" y="415" font-family="Arial" font-size="9" fill="black">FK, IDX</text>
<text x="761" y="437" font-family="Arial" font-size="10" font-weight="normal" fill="black">タイトル</text>
<rect x="753" y="431" width="3" height="6" fill="black"/>
<text x="837" y="437" font-family="Arial" font-size="10" fill="black">title</text>
<text x="919" y="437" font-family="Arial" font-size="9" fill="black">VARCHAR(200)</text>
<text x="1001" y="437" font-family="Arial" font-size="9" fill="black">IDX</text>
<text x="761" y="459" font-family="Arial" font-size="10" font-weight="normal" fill="black">本文</text>
<text x="837" y="459" font-family="Arial" font-size="10" fill="black">content</text>
<text x="919" y="459" font-family="Arial" font-size="9" fill="black">TEXT</text>
<text x="1001" y="459" font-family="Arial" font-size="9" fill="black"></text>
<text x="761" y="481" font-family="Arial" font-size="10" font-weight="normal" fill="black">公開日時</text>
<text x="837" y="481" font-family="Arial" font-size="10" fill="black">published_at</text>
<text x="919" y="481" font-family="Arial" font-size="9" fill="black">TIMESTAMP</text>
<text x="1001" y="481" font-family="Arial" font-size="9" fill="black"></text>
<line x1="750" y1="401" x2="1048" y2="401" stroke="black" stroke-width="1"/>
<rect x="50" y="50" width="240" height="91" fill="white" stroke="black" stroke-width="2"/>
<rect x="50" y="50" width="240" height="25" fill="#e6f3ff" stroke="black" stroke-width="1"/>
<text x="55" y="66" font-family="Arial" font-size="12" font-weight="bold">カテゴリ (categories)</text>
<text x="61" y="89" font-family="Arial" font-size="10" font-weight="normal" fill="black">カテゴリID</text>
<rect x="53" y="83" width="3" height="6" fill="black"/>
<text x="137" y="89" font-family="Arial" font-size="10" fill="black">id</text>
<text x="213" y="89" font-family="Arial" font-size="9" fill="black">INT</text>
<text x="61" y="111" font-family="Arial" font-size="10" font-weight="normal" fill="black">カテゴリ名</text>
<rect x="53" y="105" width="3" height="6" fill="black"/>
<text x="137" y="111" font-family="Arial" font-size="10" fill="black">name</text>
<text x="213" y="111" font-family="Arial" font-size="9" fill="black">VARCHAR(100)</text>
<text x="61" y="133" font-family="Arial" font-size="10" font-weight="normal" fill="black">説明</text>
<text x="137" y="133" font-family="Arial" font-size="10" fill="black">description</text>
<text x="213" y="133" font-family="Arial" font-size="9" fill="black">TEXT</text>
<line x1="50" y1="97" x2="290" y2="97" stroke="black" stroke-width="1"/>
<rect x="340" y="50" width="228" height="91" fill="white" stroke="black" stroke-width="2"/>
<rect x="340" y="50" width="228" height="25" fill="#e6f3ff" stroke="black" stroke-width="1"/>
<text x="345" y="66" font-family="Arial" font-size="12" font-weight="bold">投稿カテゴリ (post_categories)</text>
<text x="351" y="89" font-family="Arial" font-size="10" font-weight="normal" fill="black">投稿ID</text>
<rect x="343" y="83" width="3" height="6" fill="black"/>
<text x="427" y="89" font-family="Arial" font-size="10" fill="black">post_id</text>
<text x="503" y="89" font-family="Arial" font-size="9" fill="black">INT</text>
<text x="548" y="89" font-family="Arial" font-size="9" fill="black">FK</text>
<text x="351" y="111" font-family="Arial" font-size="10" font-weight="normal" fill="black">カテゴリID</text>
<rect x="343" y="105" width="3" height="6" fill="black"/>
<text x="427" y="111" font-family="Arial" font-size="10" fill="black">category_id</text>
<text x="503" y="111" font-family="Arial" font-size="9" fill="black">INT</text>
<text x="548" y="111" font-family="Arial" font-size="9" fill="black">FK</text>
<line x1="340" y1="119" x2="568" y2="119" stroke="black" stroke-width="1"/>
<rect x="50" y="191" width="212" height="91" fill="white" stroke="black" stroke-width="2"/>
<rect x="50" y="191" width="212" height="25" fill="#e6f3ff" stroke="black" stroke-width="1"/>
<text x="55" y="207" font-family="Arial" font-size="12" font-weight="bold">ユーザ種別 (user_types)</text>
<text x="61" y="230" font-family="Arial" font-size="10" font-weight="normal" fill="black">種別ID</text>
<rect x="53" y="224" width="3" height="6" fill="black"/>
<text x="115" y="230" font-family="Arial" font-size="10" fill="black">id</text>
<text x="191" y="230" font-family="Arial" font-size="9" fill="black">INT</text>
<text x="61" y="252" font-family="Arial" font-size="10" font-weight="normal" fill="black">種別名</text>
<rect x="53" y="246" width="3" height="6" fill="black"/>
<text x="115" y="252" font-family="Arial" font-size="10" fill="black">type_name</text>
<text x="191" y="252" font-family="Arial" font-size="9" fill="black">VARCHAR(50)</text>
<text x="61" y="274" font-family="Arial" font-size="10" font-weight="normal" fill="black">説明</text>
<text x="115" y="274" font-family="Arial" font-size="10" fill="black">description</text>
<text x="191" y="274" font-family="Arial" font-size="9" fill="black">TEXT</text>
<line x1="50" y1="238" x2="262" y2="238" stroke="black" stroke-width="1"/>
<line x1="738" y1="363" x2="597" y2="299" stroke="black" stroke-width="1"/>
<line x1="738" y1="363" x2="746" y2="358" stroke="black" stroke-width="1"/>
<line x1="738" y1="363" x2="746" y2="368" stroke="black" stroke-width="1"/>
<line x1="738" y1="363" x2="746" y2="363" stroke="black" stroke-width="1"/>
<line x1="593" y1="295" x2="593" y2="303" stroke="black" stroke-width="2"/>
<line x1="589" y1="299" x2="597" y2="299" stroke="black" stroke-width="2"/>
<line x1="580" y1="95" x2="739" y2="421" stroke="black" stroke-width="1"/>
<line x1="580" y1="95" x2="572" y2="90" stroke="black" stroke-width="1"/>
<line x1="580" y1="95" x2="572" y2="100" stroke="black" stroke-width="1"/>
<line x1="580" y1="95" x2="572" y2="95" stroke="black" stroke-width="1"/>
<circle cx="742" cy="421" r="3" fill="none" stroke="black" stroke-width="1"/>
<line x1="328" y1="95" x2="302" y2="95" stroke="black" stroke-width="1"/>
<line x1="332" y1="91" x2="332" y2="99" stroke="black" stroke-width="2"/>
<line x1="328" y1="95" x2="336" y2="95" stroke="black" stroke-width="2"/>
<line x1="302" y1="95" x2="294" y2="90" stroke="black" stroke-width="1"/>
<line x1="302" y1="95" x2="294" y2="100" stroke="black" stroke-width="1"/>
<line x1="302" y1="95" x2="294" y2="95" stroke="black" stroke-width="1"/>
<line x1="301" y1="241" x2="274" y2="239" stroke="black" stroke-width="1"/>
<circle cx="304" cy="241" r="3" fill="none" stroke="black" stroke-width="1"/>
<line x1="270" y1="235" x2="270" y2="243" stroke="black" stroke-width="2"/>
<line x1="266" y1="239" x2="274" y2="239" stroke="black" stroke-width="2"/>
</svg>